<svg id="svg" version="1.1" xmlns="http://www.w3.org/2000/svg" xmlns:xlink="http://www.w3.org/1999/xlink" width="400" height="400" viewBox="0, 0, 400,400"><g id="svgg"><path id="path0" d="M152.000 140.777 C 146.171 141.647,140.344 144.602,134.229 149.790 C 132.796 151.006,131.529 152.000,131.412 152.000 C 131.295 152.000,131.200 150.028,131.200 147.618 L 131.200 143.236 129.900 143.003 C 129.185 142.874,122.390 142.821,114.800 142.885 L 101.000 143.000 100.896 160.416 L 100.792 177.831 104.096 181.249 C 111.084 188.478,117.310 190.942,126.627 190.165 L 131.000 189.800 131.214 182.800 C 131.608 169.861,135.611 164.800,145.450 164.800 C 155.542 164.800,160.800 171.310,160.800 183.805 C 160.800 189.226,160.965 189.600,163.354 189.600 C 164.441 189.600,167.404 190.328,170.600 191.381 C 179.119 194.188,185.130 198.533,189.023 204.697 C 189.890 206.070,190.735 207.195,190.900 207.197 C 191.065 207.198,191.202 200.495,191.205 192.300 C 191.208 181.148,191.344 176.897,191.744 175.400 C 195.683 160.655,215.541 161.073,220.254 176.000 C 220.427 176.550,220.666 188.790,220.785 203.200 L 221.000 229.400 225.600 229.673 C 228.130 229.823,233.350 230.162,237.200 230.428 C 241.050 230.693,245.775 230.988,247.700 231.083 L 251.200 231.257 251.192 199.928 C 251.183 163.226,251.232 163.816,247.549 156.217 C 240.911 142.521,218.602 136.216,203.200 143.684 C 199.053 145.694,196.092 147.874,191.668 152.172 C 188.078 155.659,187.484 156.094,187.141 155.481 C 181.409 145.238,165.820 138.715,152.000 140.777 M264.800 169.600 L 264.800 173.600 267.628 173.600 C 270.867 173.600,271.841 172.049,268.884 171.600 C 267.330 171.364,267.143 170.654,268.588 170.473 C 270.003 170.297,270.014 168.800,268.600 168.800 C 267.855 168.800,267.600 168.589,267.600 167.970 C 267.600 167.273,267.809 167.161,268.900 167.270 C 269.991 167.379,270.221 167.256,270.328 166.500 C 270.450 165.639,270.332 165.600,267.628 165.600 L 264.800 165.600 264.800 169.600 M274.233 166.206 C 272.751 167.327,273.319 169.455,275.417 170.644 C 276.240 171.110,276.156 171.871,275.300 171.700 C 273.573 171.355,273.400 171.419,273.400 172.400 C 273.400 173.319,273.564 173.410,275.413 173.518 C 279.137 173.736,280.513 170.523,277.428 168.815 C 276.783 168.458,276.183 167.948,276.094 167.683 C 275.884 167.051,276.900 167.060,277.537 167.697 C 278.110 168.270,278.783 167.522,278.794 166.300 C 278.802 165.400,275.391 165.330,274.233 166.206 M281.670 166.482 C 281.741 166.987,282.070 167.400,282.400 167.400 C 282.872 167.400,283.025 168.063,283.117 170.500 L 283.234 173.600 284.417 173.600 L 285.600 173.600 285.600 170.695 C 285.600 168.066,285.686 167.752,286.500 167.395 C 288.438 166.545,287.563 165.807,284.470 165.682 C 281.614 165.567,281.543 165.587,281.670 166.482 M290.156 171.770 C 289.785 172.738,290.283 173.600,291.214 173.600 C 291.893 173.600,292.029 173.391,291.927 172.503 C 291.785 171.273,290.544 170.760,290.156 171.770 M264.842 178.149 C 264.189 178.936,264.743 180.108,265.655 179.870 C 266.711 179.593,266.578 180.371,265.348 181.654 C 263.746 183.326,264.275 184.000,267.187 184.000 C 269.686 184.000,270.867 182.656,268.836 182.125 C 268.086 181.929,268.086 181.900,268.857 180.592 C 270.231 178.265,266.586 176.048,264.842 178.149 M273.462 178.331 C 272.513 179.381,272.574 182.472,273.563 183.366 C 276.338 185.878,280.034 180.891,277.371 178.228 C 276.511 177.369,274.280 177.428,273.462 178.331 M281.220 178.176 C 280.504 179.038,281.012 180.143,282.004 179.883 C 283.274 179.551,283.267 180.187,281.986 181.414 C 279.979 183.336,280.345 184.000,283.413 184.000 C 286.659 184.000,287.570 182.778,285.000 181.872 C 284.753 181.785,284.805 181.346,285.136 180.725 C 286.422 178.309,282.973 176.063,281.220 178.176 M289.220 178.176 C 288.504 179.038,289.012 180.143,290.004 179.883 C 291.274 179.551,291.267 180.187,289.986 181.414 C 287.979 183.336,288.345 184.000,291.413 184.000 C 294.659 184.000,295.570 182.778,293.000 181.872 C 292.753 181.785,292.805 181.346,293.136 180.725 C 294.422 178.309,290.973 176.063,289.220 178.176 M276.211 180.418 C 276.578 181.012,275.652 181.995,274.971 181.733 C 274.094 181.397,274.260 180.000,275.176 180.000 C 275.603 180.000,276.069 180.188,276.211 180.418 M276.277 195.000 C 263.385 198.544,257.422 213.760,264.655 224.657 C 275.577 241.111,300.771 233.659,300.796 213.966 C 300.812 201.230,288.436 191.657,276.277 195.000 M155.435 198.100 C 155.188 198.979,154.414 201.945,153.973 203.700 C 153.738 204.635,153.378 205.953,153.173 206.628 C 152.567 208.623,152.700 209.600,153.576 209.600 C 154.003 209.600,154.464 209.780,154.600 210.000 C 155.041 210.713,157.792 210.453,158.693 209.614 C 160.859 207.596,159.407 204.000,156.426 204.000 C 155.440 204.000,155.418 203.668,156.200 200.665 C 156.530 199.398,156.800 198.190,156.800 197.980 C 156.800 197.414,155.597 197.520,155.435 198.100 M157.920 206.080 C 158.670 206.830,158.486 208.326,157.585 208.808 C 155.858 209.732,153.899 207.991,154.887 206.409 C 155.450 205.508,157.162 205.322,157.920 206.080 M163.510 207.024 C 160.756 208.518,161.341 212.577,164.356 212.898 C 165.684 213.040,165.889 212.090,164.633 211.612 C 162.981 210.984,163.435 210.400,165.576 210.400 C 167.850 210.400,168.263 210.000,167.611 208.428 C 166.863 206.621,165.262 206.073,163.510 207.024 M165.800 208.400 C 165.940 208.627,165.604 208.800,165.024 208.800 C 164.461 208.800,164.000 208.620,164.000 208.400 C 164.000 208.180,164.349 208.000,164.776 208.000 C 165.203 208.000,165.664 208.180,165.800 208.400 M171.600 210.275 C 168.509 211.455,169.055 215.865,172.382 216.596 C 173.052 216.743,173.600 217.051,173.600 217.281 C 173.600 218.139,174.807 216.665,175.849 214.536 C 176.650 212.899,176.802 212.242,176.458 211.898 C 176.206 211.646,176.000 211.597,176.000 211.790 C 176.000 211.982,175.595 211.761,175.100 211.299 C 174.113 210.378,172.538 209.918,171.600 210.275 M174.400 213.184 C 174.400 215.068,172.713 215.856,171.429 214.571 C 170.587 213.730,170.637 212.963,171.594 212.006 C 172.690 210.910,174.400 211.628,174.400 213.184 M181.336 212.400 C 180.875 213.181,180.306 213.600,179.706 213.600 C 178.925 213.600,178.823 213.751,179.034 214.594 C 179.208 215.285,178.954 216.149,178.202 217.433 C 177.315 218.945,177.255 221.041,178.129 219.973 C 178.207 219.878,178.837 218.961,179.530 217.936 C 180.502 216.497,180.972 216.120,181.594 216.283 C 182.458 216.509,182.767 215.474,181.981 214.988 C 181.711 214.821,181.853 214.237,182.381 213.342 C 183.349 211.701,183.406 211.200,182.623 211.200 C 182.305 211.200,181.726 211.740,181.336 212.400 M203.300 230.900 C 203.552 231.657,204.800 231.764,204.800 231.029 C 204.800 230.658,204.458 230.400,203.967 230.400 C 203.478 230.400,203.202 230.607,203.300 230.900 M199.300 233.661 C 197.197 235.310,196.887 235.759,197.561 236.176 C 198.015 236.457,202.200 233.345,202.200 232.725 C 202.200 231.784,201.340 232.061,199.300 233.661 M202.072 237.461 C 200.284 239.450,200.137 239.790,200.866 240.241 C 201.135 240.407,201.686 240.099,202.166 239.516 C 203.477 237.923,204.520 237.529,205.538 238.242 C 206.667 239.032,206.608 239.518,205.184 241.185 C 202.882 243.878,203.949 244.499,206.412 241.900 C 208.462 239.737,208.433 238.538,206.301 237.400 C 205.477 236.960,204.802 236.375,204.801 236.100 C 204.799 235.098,203.706 235.643,202.072 237.461 M212.399 238.342 C 211.698 239.213,210.760 240.022,210.313 240.139 C 209.688 240.302,209.556 240.569,209.739 241.300 C 209.901 241.943,209.659 242.716,208.989 243.703 C 206.923 246.742,208.034 247.361,210.184 244.369 C 211.406 242.669,211.740 242.418,212.239 242.832 C 212.708 243.222,212.936 243.223,213.317 242.836 C 213.695 242.453,213.646 242.232,213.091 241.822 C 211.658 240.763,213.394 238.380,215.682 238.266 C 217.718 238.164,217.435 237.032,215.336 236.879 C 213.817 236.768,213.561 236.896,212.399 238.342 M218.064 238.096 C 217.809 238.351,217.600 238.699,217.600 238.870 C 217.600 239.040,217.092 240.309,216.470 241.690 C 215.849 243.070,215.100 244.830,214.806 245.600 C 214.512 246.370,214.121 247.171,213.936 247.380 C 213.751 247.589,213.600 248.097,213.600 248.509 C 213.600 249.938,214.886 249.026,215.662 247.047 C 216.463 245.005,217.684 242.212,218.638 240.239 C 219.526 238.403,219.152 237.008,218.064 238.096 M248.089 241.823 C 247.600 242.165,247.200 242.724,247.200 243.065 C 247.200 243.468,246.977 243.600,246.564 243.441 C 245.285 242.951,245.236 243.693,246.396 245.992 C 248.170 249.506,249.539 249.927,248.297 246.577 C 247.641 244.808,247.730 243.682,248.571 243.106 C 249.456 242.500,250.050 242.850,251.107 244.600 C 252.822 247.439,253.910 246.960,252.413 244.026 C 250.964 241.186,249.826 240.606,248.089 241.823 M228.578 244.208 C 228.425 245.229,228.052 246.159,227.750 246.275 C 226.995 246.564,227.058 247.460,227.855 247.766 C 228.377 247.966,228.468 248.399,228.303 249.908 C 228.063 252.097,228.241 252.800,229.033 252.800 C 229.458 252.800,229.600 252.210,229.600 250.447 C 229.600 248.430,229.714 248.063,230.400 247.884 C 231.313 247.645,231.499 246.400,230.622 246.400 C 230.218 246.400,230.007 245.838,229.922 244.531 C 229.758 242.021,228.936 241.823,228.578 244.208 M232.800 243.551 C 232.800 244.076,233.834 244.833,234.137 244.530 C 234.684 243.982,234.369 243.200,233.600 243.200 C 233.160 243.200,232.800 243.358,232.800 243.551 M238.369 245.969 C 236.153 248.186,237.317 251.215,240.375 251.187 C 242.102 251.172,243.057 250.509,243.417 249.075 C 244.270 245.676,240.799 243.540,238.369 245.969 M219.335 245.791 C 216.680 247.650,218.387 251.179,222.215 251.744 L 223.831 251.982 224.307 250.291 C 225.270 246.869,225.176 246.404,223.400 245.777 C 221.350 245.053,220.383 245.057,219.335 245.791 M222.426 246.814 C 223.375 247.322,223.428 248.685,222.538 249.669 C 221.720 250.572,221.269 250.586,220.331 249.738 C 218.460 248.045,220.197 245.621,222.426 246.814 M233.470 246.700 C 233.016 247.467,233.817 252.200,234.400 252.200 C 235.008 252.200,235.117 249.496,234.598 247.300 C 234.388 246.415,233.818 246.111,233.470 246.700 M242.007 247.414 C 242.493 248.321,242.461 248.516,241.711 249.266 C 240.074 250.903,237.664 249.167,238.877 247.225 C 239.618 246.038,241.326 246.141,242.007 247.414 " stroke="none" fill="#fafafa" fill-rule="evenodd"></path><path id="path1" d="M0.000 200.000 L 0.000 400.000 200.000 400.000 L 400.000 400.000 400.000 200.000 L 400.000 0.000 200.000 0.000 L 0.000 0.000 0.000 200.000 M165.922 141.268 C 175.692 143.627,183.395 148.786,187.141 155.481 C 187.484 156.094,188.078 155.659,191.668 152.172 C 196.092 147.874,199.053 145.694,203.200 143.684 C 218.602 136.216,240.911 142.521,247.549 156.217 C 251.232 163.816,251.183 163.226,251.192 199.928 L 251.200 231.257 247.700 231.083 C 245.775 230.988,241.050 230.693,237.200 230.428 C 233.350 230.162,228.130 229.823,225.600 229.673 L 221.000 229.400 220.785 203.200 C 220.666 188.790,220.427 176.550,220.254 176.000 C 216.166 163.054,198.936 160.378,193.104 171.784 C 191.339 175.236,191.210 176.633,191.205 192.300 C 191.202 200.495,191.065 207.198,190.900 207.197 C 190.735 207.195,189.890 206.070,189.023 204.697 C 185.130 198.533,179.119 194.188,170.600 191.381 C 167.404 190.328,164.441 189.600,163.354 189.600 C 160.965 189.600,160.800 189.226,160.800 183.805 C 160.800 171.310,155.542 164.800,145.450 164.800 C 135.611 164.800,131.608 169.861,131.214 182.800 L 131.000 189.800 126.627 190.165 C 117.310 190.942,111.084 188.478,104.096 181.249 L 100.792 177.831 100.896 160.416 L 101.000 143.000 114.800 142.885 C 122.390 142.821,129.185 142.874,129.900 143.003 L 131.200 143.236 131.200 147.618 C 131.200 150.028,131.295 152.000,131.412 152.000 C 131.529 152.000,132.796 151.006,134.229 149.790 C 143.938 141.554,154.898 138.607,165.922 141.268 M270.328 166.500 C 270.221 167.256,269.991 167.379,268.900 167.270 C 267.809 167.161,267.600 167.273,267.600 167.970 C 267.600 168.589,267.855 168.800,268.600 168.800 C 270.014 168.800,270.003 170.297,268.588 170.473 C 267.143 170.654,267.330 171.364,268.884 171.600 C 271.841 172.049,270.867 173.600,267.628 173.600 L 264.800 173.600 264.800 169.600 L 264.800 165.600 267.628 165.600 C 270.332 165.600,270.450 165.639,270.328 166.500 M278.794 166.300 C 278.783 167.522,278.110 168.270,277.537 167.697 C 276.900 167.060,275.884 167.051,276.094 167.683 C 276.183 167.948,276.783 168.458,277.428 168.815 C 280.513 170.523,279.137 173.736,275.413 173.518 C 273.564 173.410,273.400 173.319,273.400 172.400 C 273.400 171.419,273.573 171.355,275.300 171.700 C 276.156 171.871,276.240 171.110,275.417 170.644 C 273.319 169.455,272.751 167.327,274.233 166.206 C 275.391 165.330,278.802 165.400,278.794 166.300 M287.400 166.400 C 287.400 166.730,286.995 167.178,286.500 167.395 C 285.686 167.752,285.600 168.066,285.600 170.695 L 285.600 173.600 284.417 173.600 L 283.234 173.600 283.117 170.500 C 283.025 168.063,282.872 167.400,282.400 167.400 C 282.070 167.400,281.741 166.987,281.670 166.482 C 281.543 165.587,281.614 165.567,284.470 165.682 C 286.755 165.774,287.400 165.932,287.400 166.400 M291.927 172.503 C 292.029 173.391,291.893 173.600,291.214 173.600 C 290.283 173.600,289.785 172.738,290.156 171.770 C 290.544 170.760,291.785 171.273,291.927 172.503 M269.126 178.430 C 269.567 179.136,269.527 179.458,268.857 180.592 C 268.086 181.900,268.086 181.929,268.836 182.125 C 270.867 182.656,269.686 184.000,267.187 184.000 C 264.275 184.000,263.746 183.326,265.348 181.654 C 266.578 180.371,266.711 179.593,265.655 179.870 C 264.743 180.108,264.189 178.936,264.842 178.149 C 265.585 177.254,268.511 177.445,269.126 178.430 M277.371 178.228 C 280.034 180.891,276.338 185.878,273.563 183.366 C 272.574 182.472,272.513 179.381,273.462 178.331 C 274.280 177.428,276.511 177.369,277.371 178.228 M285.536 178.760 C 285.610 179.288,285.430 180.172,285.136 180.725 C 284.805 181.346,284.753 181.785,285.000 181.872 C 287.570 182.778,286.659 184.000,283.413 184.000 C 280.345 184.000,279.979 183.336,281.986 181.414 C 283.267 180.187,283.274 179.551,282.004 179.883 C 281.012 180.143,280.504 179.038,281.220 178.176 C 282.102 177.113,285.365 177.555,285.536 178.760 M293.536 178.760 C 293.610 179.288,293.430 180.172,293.136 180.725 C 292.805 181.346,292.753 181.785,293.000 181.872 C 295.570 182.778,294.659 184.000,291.413 184.000 C 288.345 184.000,287.979 183.336,289.986 181.414 C 291.267 180.187,291.274 179.551,290.004 179.883 C 289.012 180.143,288.504 179.038,289.220 178.176 C 290.102 177.113,293.365 177.555,293.536 178.760 M274.400 180.757 C 274.400 181.725,275.401 182.122,276.005 181.394 C 276.593 180.686,276.185 180.000,275.176 180.000 C 274.681 180.000,274.400 180.274,274.400 180.757 M285.948 194.981 C 300.752 198.921,305.868 216.728,295.332 227.641 C 284.966 238.378,267.107 234.244,262.440 220.026 C 257.744 205.722,271.448 191.122,285.948 194.981 M156.800 197.980 C 156.800 198.190,156.530 199.398,156.200 200.665 C 155.418 203.668,155.440 204.000,156.426 204.000 C 159.407 204.000,160.859 207.596,158.693 209.614 C 157.792 210.453,155.041 210.713,154.600 210.000 C 154.464 209.780,154.003 209.600,153.576 209.600 C 152.700 209.600,152.567 208.623,153.173 206.628 C 153.378 205.953,153.738 204.635,153.973 203.700 C 154.414 201.945,155.188 198.979,155.435 198.100 C 155.597 197.520,156.800 197.414,156.800 197.980 M154.887 206.409 C 153.899 207.991,155.858 209.732,157.585 208.808 C 158.486 208.326,158.670 206.830,157.920 206.080 C 157.162 205.322,155.450 205.508,154.887 206.409 M166.154 206.852 C 168.756 208.037,168.371 210.400,165.576 210.400 C 163.435 210.400,162.981 210.984,164.633 211.612 C 165.889 212.090,165.684 213.040,164.356 212.898 C 163.201 212.775,161.600 211.063,161.600 209.951 C 161.600 207.627,164.109 205.920,166.154 206.852 M164.000 208.400 C 164.000 208.620,164.461 208.800,165.024 208.800 C 165.604 208.800,165.940 208.627,165.800 208.400 C 165.664 208.180,165.203 208.000,164.776 208.000 C 164.349 208.000,164.000 208.180,164.000 208.400 M175.100 211.299 C 175.595 211.761,176.000 211.982,176.000 211.790 C 176.000 211.597,176.206 211.646,176.458 211.898 C 176.802 212.242,176.650 212.899,175.849 214.536 C 174.807 216.665,173.600 218.139,173.600 217.281 C 173.600 217.051,173.052 216.743,172.382 216.596 C 170.648 216.215,169.600 214.930,169.600 213.187 C 169.600 210.244,172.795 209.148,175.100 211.299 M171.594 212.006 C 170.637 212.963,170.587 213.730,171.429 214.571 C 172.713 215.856,174.400 215.068,174.400 213.184 C 174.400 211.628,172.690 210.910,171.594 212.006 M183.200 211.577 C 183.200 211.785,182.832 212.579,182.381 213.342 C 181.853 214.237,181.711 214.821,181.981 214.988 C 182.767 215.474,182.458 216.509,181.594 216.283 C 180.972 216.120,180.502 216.497,179.530 217.936 C 178.837 218.961,178.207 219.878,178.129 219.973 C 177.255 221.041,177.315 218.945,178.202 217.433 C 178.954 216.149,179.208 215.285,179.034 214.594 C 178.823 213.751,178.925 213.600,179.706 213.600 C 180.306 213.600,180.875 213.181,181.336 212.400 C 182.002 211.273,183.200 210.744,183.200 211.577 M204.800 231.029 C 204.800 231.402,204.528 231.606,204.133 231.529 C 203.130 231.335,202.992 230.400,203.967 230.400 C 204.458 230.400,204.800 230.658,204.800 231.029 M202.200 232.725 C 202.200 233.345,198.015 236.457,197.561 236.176 C 196.887 235.759,197.197 235.310,199.300 233.661 C 201.340 232.061,202.200 231.784,202.200 232.725 M204.801 236.100 C 204.802 236.375,205.477 236.960,206.301 237.400 C 208.433 238.538,208.462 239.737,206.412 241.900 C 203.949 244.499,202.882 243.878,205.184 241.185 C 206.608 239.518,206.667 239.032,205.538 238.242 C 204.520 237.529,203.477 237.923,202.166 239.516 C 201.686 240.099,201.135 240.407,200.866 240.241 C 200.137 239.790,200.284 239.450,202.072 237.461 C 203.706 235.643,204.799 235.098,204.801 236.100 M217.000 237.600 C 217.000 237.999,216.558 238.222,215.682 238.266 C 213.394 238.380,211.658 240.763,213.091 241.822 C 213.646 242.232,213.695 242.453,213.317 242.836 C 212.936 243.223,212.708 243.222,212.239 242.832 C 211.740 242.418,211.406 242.669,210.184 244.369 C 208.034 247.361,206.923 246.742,208.989 243.703 C 209.659 242.716,209.901 241.943,209.739 241.300 C 209.556 240.569,209.688 240.302,210.313 240.139 C 210.760 240.022,211.698 239.213,212.399 238.342 C 213.772 236.633,217.000 236.112,217.000 237.600 M219.200 238.562 C 219.200 238.845,218.947 239.600,218.638 240.239 C 217.684 242.212,216.463 245.005,215.662 247.047 C 214.886 249.026,213.600 249.938,213.600 248.509 C 213.600 248.097,213.751 247.589,213.936 247.380 C 214.121 247.171,214.512 246.370,214.806 245.600 C 215.100 244.830,215.849 243.070,216.470 241.690 C 217.092 240.309,217.600 239.040,217.600 238.870 C 217.600 238.355,218.505 237.617,218.864 237.840 C 219.049 237.954,219.200 238.279,219.200 238.562 M250.985 241.842 C 251.711 242.568,253.200 245.353,253.200 245.984 C 253.200 246.979,252.108 246.257,251.107 244.600 C 250.050 242.850,249.456 242.500,248.571 243.106 C 247.730 243.682,247.641 244.808,248.297 246.577 C 249.539 249.927,248.170 249.506,246.396 245.992 C 245.236 243.693,245.285 242.951,246.564 243.441 C 246.977 243.600,247.200 243.468,247.200 243.065 C 247.200 241.578,249.861 240.718,250.985 241.842 M229.922 244.531 C 230.007 245.838,230.218 246.400,230.622 246.400 C 231.499 246.400,231.313 247.645,230.400 247.884 C 229.714 248.063,229.600 248.430,229.600 250.447 C 229.600 252.210,229.458 252.800,229.033 252.800 C 228.241 252.800,228.063 252.097,228.303 249.908 C 228.468 248.399,228.377 247.966,227.855 247.766 C 227.058 247.460,226.995 246.564,227.750 246.275 C 228.052 246.159,228.425 245.229,228.578 244.208 C 228.936 241.823,229.758 242.021,229.922 244.531 M234.400 243.733 C 234.400 244.564,233.927 244.837,233.337 244.348 C 232.561 243.704,232.677 243.200,233.600 243.200 C 234.040 243.200,234.400 243.440,234.400 243.733 M242.014 245.407 C 244.917 246.908,243.712 251.157,240.375 251.187 C 237.317 251.215,236.153 248.186,238.369 245.969 C 239.695 244.643,240.343 244.543,242.014 245.407 M223.400 245.777 C 225.176 246.404,225.270 246.869,224.307 250.291 L 223.831 251.982 222.215 251.744 C 219.267 251.309,217.691 249.570,218.245 247.363 C 218.751 245.348,220.586 244.783,223.400 245.777 M220.080 246.880 C 219.067 247.893,220.056 250.400,221.470 250.400 C 222.148 250.400,223.200 248.991,223.200 248.083 C 223.200 246.707,221.073 245.887,220.080 246.880 M234.598 247.300 C 235.117 249.496,235.008 252.200,234.400 252.200 C 233.817 252.200,233.016 247.467,233.470 246.700 C 233.818 246.111,234.388 246.415,234.598 247.300 M238.877 247.225 C 237.664 249.167,240.074 250.903,241.711 249.266 C 242.461 248.516,242.493 248.321,242.007 247.414 C 241.326 246.141,239.618 246.038,238.877 247.225 " stroke="none" fill="#4c4c44" fill-rule="evenodd"></path></g></svg>